<?xml version="1.0" standalone="no"?>
<!DOCTYPE svg PUBLIC "-//W3C//DTD SVG 20010904//EN"
 "http://www.w3.org/TR/2001/REC-SVG-20010904/DTD/svg10.dtd">
<svg version="1.0" xmlns="http://www.w3.org/2000/svg"
 width="1000.000000pt" height="1000.000000pt" viewBox="0 0 1000.000000 1000.000000"
 preserveAspectRatio="xMidYMid meet">
<metadata>
Created by potrace 1.14, written by Peter Selinger 2001-2017
</metadata>
<g transform="translate(0.000000,1000.000000) scale(0.100000,-0.100000)"
fill="#000000" stroke="none">
<path d="M5836 8482 c-3 -6 -15 -9 -26 -7 -11 2 -20 -1 -20 -7 0 -6 -7 -5 -17
3 -10 8 -14 9 -10 2 4 -6 3 -14 -3 -18 -5 -3 -10 -1 -10 5 0 7 -5 8 -12 3 -7
-4 -22 -9 -33 -9 -42 -3 -46 -4 -39 -16 5 -7 3 -8 -7 -2 -20 12 -40 14 -34 3
4 -5 -8 -7 -24 -5 -17 2 -31 -1 -31 -6 0 -5 -10 -6 -21 -3 -13 4 -19 3 -16 -2
4 -6 -10 -9 -31 -9 -21 1 -43 -5 -50 -14 -10 -11 -11 -11 -6 -1 5 10 3 12 -7
5 -8 -4 -34 -10 -59 -11 -25 -2 -52 -7 -60 -10 -8 -4 -24 -8 -35 -9 -37 -4
-50 -9 -57 -19 -5 -6 -8 -5 -8 4 0 11 -3 11 -17 0 -15 -12 -16 -12 -8 1 8 13
6 13 -8 2 -9 -8 -32 -14 -52 -14 -20 0 -35 -5 -35 -11 0 -7 -5 -5 -10 3 -6 10
-10 11 -10 3 0 -7 -5 -13 -11 -13 -5 0 -7 6 -4 13 4 6 0 4 -8 -5 -8 -11 -21
-15 -35 -11 -15 3 -22 1 -22 -8 0 -11 -2 -11 -10 1 -8 12 -10 12 -10 1 0 -8
-7 -11 -20 -8 -11 3 -23 1 -26 -5 -4 -6 -10 -5 -15 3 -7 12 -9 12 -9 0 0 -7
-6 -11 -14 -8 -7 3 -19 0 -26 -6 -10 -9 -11 -9 -5 3 7 12 6 13 -6 4 -8 -6 -22
-12 -31 -12 -10 -1 -29 -2 -43 -3 -14 -1 -25 -7 -25 -13 0 -6 -4 -4 -10 4 -8
12 -10 12 -16 -3 -5 -14 -9 -15 -20 -6 -11 9 -14 8 -14 -2 0 -11 -2 -11 -10 1
-5 8 -10 10 -10 3 0 -6 -13 -10 -29 -9 -17 1 -28 -2 -25 -6 8 -13 -11 -9 -25
5 -11 10 -13 10 -7 0 7 -12 -5 -18 -27 -14 -4 1 -17 -4 -29 -10 -16 -9 -19 -8
-12 3 6 11 5 11 -8 0 -13 -10 -17 -10 -21 0 -4 11 -6 10 -6 0 -1 -7 -5 -10
-11 -7 -5 3 -10 2 -10 -3 0 -4 -19 -8 -42 -8 -31 -1 -42 -4 -40 -14 2 -11 0
-11 -11 -1 -10 8 -22 9 -40 2 -14 -5 -28 -7 -31 -4 -3 4 -6 1 -6 -5 0 -7 -3
-11 -7 -11 -22 4 -33 -2 -27 -13 5 -9 2 -9 -9 1 -13 10 -20 11 -30 2 -8 -6
-17 -8 -20 -4 -4 3 -7 1 -7 -5 0 -6 -6 -9 -14 -6 -8 3 -17 0 -21 -5 -3 -6 -11
-9 -16 -6 -5 4 -9 1 -9 -4 0 -6 -5 -11 -11 -11 -5 0 -7 6 -3 13 4 6 -2 4 -13
-5 -11 -10 -25 -18 -31 -18 -7 0 -12 -4 -12 -9 0 -6 -9 -8 -20 -6 -11 2 -18 0
-15 -6 5 -8 -23 -14 -47 -10 -5 0 -8 -6 -8 -15 0 -8 -4 -12 -10 -9 -5 3 -10 1
-10 -4 0 -6 -3 -10 -7 -10 -23 4 -43 -2 -38 -11 3 -5 -1 -10 -9 -10 -9 0 -16
-4 -16 -10 0 -5 -11 -12 -25 -16 -14 -3 -25 -10 -25 -16 0 -5 -4 -6 -10 -3 -5
3 -10 -2 -10 -12 0 -14 -2 -15 -9 -4 -7 11 -11 9 -20 -8 -6 -11 -15 -20 -19
-19 -14 4 -52 -23 -52 -37 0 -9 -6 -12 -17 -8 -11 4 -14 3 -9 -5 4 -7 2 -12
-4 -12 -6 0 -9 -4 -6 -9 3 -5 -6 -12 -19 -15 -14 -4 -23 -11 -20 -16 3 -6 -1
-10 -10 -10 -9 0 -19 -9 -22 -20 -3 -12 -14 -20 -27 -20 -17 0 -18 -2 -6 -10
13 -9 7 -14 -12 -11 -5 0 -8 -3 -8 -8 0 -6 -13 -24 -30 -42 -16 -18 -26 -37
-23 -43 4 -6 -2 -4 -12 4 -11 9 -16 10 -11 3 4 -8 2 -13 -6 -13 -10 0 -10 -2
1 -9 9 -6 10 -11 2 -15 -6 -4 -11 -4 -11 1 0 4 -5 0 -11 -10 -5 -9 -7 -22 -4
-27 4 -6 3 -9 -2 -8 -4 2 -9 0 -10 -5 -5 -14 -28 -35 -35 -30 -4 2 -5 -3 -2
-11 3 -9 1 -16 -4 -16 -12 0 -28 -39 -23 -55 1 -5 -1 -7 -5 -3 -11 11 -34 -11
-28 -27 3 -7 0 -16 -5 -20 -6 -3 -9 -11 -6 -16 4 -5 -2 -9 -12 -9 -15 0 -16
-2 -3 -10 12 -7 12 -10 1 -10 -7 0 -11 -6 -7 -15 3 -8 0 -14 -7 -12 -7 1 -13
-5 -13 -13 -1 -8 -2 -20 -3 -27 0 -6 -8 -19 -17 -27 -8 -9 -10 -16 -4 -16 8 0
8 -6 0 -20 -6 -11 -16 -18 -21 -14 -7 4 -6 -3 1 -16 11 -20 10 -22 -5 -16 -15
5 -16 4 -5 -9 11 -13 11 -18 0 -28 -10 -10 -11 -9 -5 2 6 10 4 12 -4 7 -9 -6
-9 -11 0 -22 9 -11 9 -14 -1 -14 -7 0 -10 -6 -7 -14 3 -8 3 -17 -1 -20 -7 -8
-12 -30 -14 -68 0 -16 -5 -28 -10 -28 -4 0 -8 -5 -8 -11 0 -5 4 -8 8 -5 5 3 9
-1 9 -9 0 -8 -4 -12 -9 -9 -4 3 -9 -7 -9 -23 -1 -15 -2 -48 -3 -73 -1 -25 -5
-51 -10 -58 -4 -6 -3 -12 1 -12 5 0 9 -9 10 -20 1 -11 -3 -18 -8 -14 -12 7 -7
-19 5 -28 6 -4 4 -13 -3 -22 -8 -9 -10 -16 -5 -16 5 0 9 -33 9 -73 0 -39 5
-75 10 -79 6 -5 6 -8 -2 -8 -6 0 -9 -9 -6 -20 3 -11 9 -20 14 -20 4 0 7 -16 5
-36 -1 -19 1 -37 6 -40 5 -3 6 -10 3 -15 -4 -5 -2 -9 2 -9 5 0 9 -10 10 -22 1
-12 7 -33 13 -48 6 -15 10 -33 8 -41 -2 -8 2 -13 9 -12 7 2 10 -6 8 -17 -2
-11 1 -20 7 -20 6 0 8 -3 5 -7 -4 -3 1 -12 11 -20 16 -14 16 -14 -2 -8 -19 6
-19 5 -3 -13 9 -10 14 -22 10 -25 -3 -4 -1 -7 5 -7 7 0 12 -7 12 -15 0 -8 6
-15 13 -15 9 0 9 -2 -1 -9 -11 -7 -10 -9 3 -15 9 -3 14 -10 11 -15 -4 -5 -1
-11 4 -13 6 -2 12 -13 13 -26 1 -14 6 -21 14 -18 7 3 12 2 12 -2 -3 -20 2 -33
11 -27 6 3 7 -1 4 -9 -3 -9 -1 -16 6 -16 6 0 8 -4 5 -10 -3 -5 1 -10 9 -10 10
0 13 -6 10 -15 -4 -8 1 -17 10 -21 9 -3 16 -12 16 -20 0 -7 9 -18 21 -24 12
-7 18 -18 15 -26 -3 -9 -1 -12 4 -9 6 3 10 -1 10 -9 0 -8 5 -18 12 -22 7 -5 8
-3 3 6 -5 9 -4 11 3 6 7 -4 12 -14 12 -21 0 -8 11 -22 25 -31 13 -9 27 -24 30
-35 4 -11 11 -17 16 -14 5 4 9 -2 9 -11 0 -10 3 -15 6 -11 8 8 34 -18 34 -33
0 -6 4 -9 9 -6 5 3 11 -1 15 -9 3 -8 10 -15 16 -15 5 0 23 -14 40 -31 16 -18
30 -28 30 -23 0 5 5 1 11 -8 5 -10 17 -18 24 -18 8 0 15 -4 15 -10 0 -5 6 -10
13 -10 7 0 23 -9 34 -19 12 -11 24 -17 27 -14 3 4 6 1 6 -5 0 -7 6 -11 13 -9
6 1 11 -3 10 -10 -2 -7 4 -10 12 -7 8 4 15 1 15 -6 0 -6 5 -8 10 -5 6 3 10 2
10 -4 0 -6 7 -7 17 -4 12 5 14 3 8 -7 -6 -10 -4 -12 9 -7 13 5 17 3 13 -7 -4
-10 0 -12 14 -9 10 3 19 1 19 -5 0 -6 9 -9 20 -7 11 2 18 0 15 -6 -6 -8 2 -11
21 -8 4 0 11 -5 15 -13 7 -11 9 -11 9 0 0 10 4 9 16 -3 10 -9 25 -14 35 -12
11 3 22 0 26 -5 4 -7 1 -8 -7 -3 -8 5 -11 4 -7 -3 4 -5 16 -8 27 -5 11 3 20 1
20 -5 0 -6 8 -9 18 -8 9 2 20 -2 24 -7 8 -13 49 -17 41 -4 -4 6 -1 7 8 1 8 -4
23 -10 34 -11 10 -2 22 -7 25 -11 6 -10 21 -9 38 1 6 5 12 4 12 -1 0 -4 15 -9
33 -9 97 -3 123 -6 136 -17 12 -9 14 -8 9 4 -5 14 2 15 48 10 35 -4 54 -2 54
4 0 6 4 5 9 -3 7 -11 9 -11 14 0 4 12 7 11 16 -1 6 -9 11 -10 11 -3 0 6 8 10
18 8 9 -1 25 2 35 7 11 6 17 5 17 -3 0 -8 4 -8 15 1 11 9 15 9 15 1 0 -7 5 -9
10 -6 6 4 7 12 3 18 -4 7 2 5 12 -3 15 -12 17 -12 10 -1 -6 11 -4 13 10 8 9
-4 25 -2 33 5 10 8 13 9 9 1 -5 -7 0 -9 13 -6 11 3 20 9 20 13 0 4 13 6 30 5
16 -1 27 2 24 7 -3 4 6 8 20 8 14 0 26 6 26 13 0 8 4 7 10 -3 9 -14 15 -7 11
14 -1 5 5 4 13 -3 12 -10 16 -9 25 6 8 14 11 15 11 3 0 -12 4 -10 15 4 8 11
15 16 15 12 0 -5 6 -3 13 3 8 6 17 8 20 4 4 -3 7 -1 7 6 0 7 4 10 9 7 5 -3 11
1 15 9 3 8 11 15 18 14 10 0 10 -2 1 -6 -7 -2 -13 -9 -13 -14 0 -5 9 -4 19 3
11 7 17 16 15 20 -3 4 4 8 15 8 12 0 21 4 21 10 0 5 7 6 17 3 11 -4 14 -3 9 5
-5 8 0 12 14 12 12 0 18 5 15 10 -4 6 8 13 25 17 17 3 37 14 43 23 6 10 16 16
23 13 6 -2 15 1 20 8 4 8 3 10 -4 5 -7 -4 -12 -5 -12 -1 0 3 12 10 26 15 14 6
23 14 19 19 -3 6 3 8 14 6 15 -3 18 0 14 12 -4 11 -2 14 5 9 7 -4 12 -2 12 4
0 7 7 9 17 6 10 -4 14 -4 11 0 -10 10 11 46 23 39 5 -4 12 1 15 10 4 9 13 14
21 11 8 -3 11 -1 8 5 -9 14 15 41 31 35 8 -3 11 0 7 9 -3 8 2 18 11 21 9 3 14
10 11 14 -3 5 4 11 15 15 11 4 18 10 15 15 -3 5 4 11 15 15 11 4 18 11 15 16
-4 5 5 19 18 31 14 13 25 27 25 33 0 5 9 12 19 16 13 6 14 8 3 9 -11 0 -9 6 8
20 13 11 21 24 17 30 -3 5 -2 10 4 10 5 0 13 9 16 20 4 11 11 17 17 14 7 -5 9
-1 5 9 -3 8 1 21 9 28 8 6 12 14 9 17 -2 3 3 11 13 19 9 8 11 12 5 8 -7 -3
-13 -1 -13 4 0 6 5 11 10 11 6 0 10 7 10 15 0 8 5 15 10 15 6 0 10 9 10 19 0
11 5 23 10 26 6 4 8 11 5 16 -4 5 -2 9 4 9 5 0 8 9 6 20 -2 11 1 20 7 20 6 0
8 11 6 25 -4 20 -2 23 8 15 9 -9 12 -5 10 14 -2 15 0 26 4 26 5 0 7 11 6 25
-2 14 2 29 9 35 6 5 11 23 10 39 -1 17 1 28 5 26 4 -3 8 7 9 20 3 49 4 55 15
55 6 0 5 4 -2 9 -8 4 -14 12 -14 16 0 4 6 12 14 16 10 7 10 9 0 9 -7 0 -10 5
-7 10 4 6 10 8 14 6 11 -7 2 75 -10 90 -7 9 -5 16 8 24 13 8 15 13 5 17 -10 4
-10 8 -1 19 9 11 8 14 -2 14 -11 0 -11 2 1 10 13 9 13 11 0 20 -8 5 -10 10 -5
10 6 0 10 11 10 24 0 13 -3 22 -6 20 -4 -2 -10 3 -13 12 -3 8 -2 12 4 9 11 -7
14 8 3 19 -10 10 -13 37 -3 31 5 -3 12 -1 15 5 4 6 1 9 -6 8 -7 -2 -14 7 -15
18 0 12 -4 26 -8 32 -3 6 0 13 6 15 7 3 4 6 -7 7 -19 1 -19 1 -2 11 18 10 18
11 0 32 -12 14 -13 18 -3 12 12 -7 13 -6 4 6 -6 8 -11 29 -10 47 0 19 -3 36
-8 39 -5 4 -6 0 -1 -8 5 -8 4 -10 0 -6 -12 10 -15 38 -4 31 5 -3 9 0 9 5 0 6
-6 11 -12 11 -9 0 -8 4 2 10 11 7 11 10 2 10 -7 0 -12 6 -11 13 4 33 -2 68
-11 62 -6 -4 -6 4 0 21 8 21 8 29 -2 36 -7 4 -9 8 -5 8 4 0 3 9 -3 20 -8 15
-8 20 2 20 10 0 10 2 0 9 -8 4 -13 11 -13 15 1 3 1 7 0 9 -8 27 -7 47 4 47 9
0 9 2 -1 8 -7 5 -13 25 -14 45 -1 20 -6 37 -12 37 -7 0 -6 4 1 11 11 11 6 49
-7 49 -5 0 -6 9 -3 20 3 11 0 26 -6 34 -9 10 -9 16 -1 21 8 5 6 14 -7 28 -17
20 -17 20 2 14 19 -7 19 -6 2 7 -14 10 -15 15 -5 19 7 3 8 6 2 6 -7 1 -10 16
-8 36 1 19 -1 35 -6 35 -8 0 -4 46 6 62 3 4 -1 5 -8 3 -10 -4 -14 4 -13 27 1
18 -4 36 -9 40 -7 5 -6 8 2 8 7 0 10 5 7 10 -4 6 -12 8 -18 4 -7 -3 -3 2 7 10
17 14 16 20 -4 18 -3 0 -5 22 -4 49 0 27 -2 49 -7 49 -9 0 -7 20 4 37 4 6 2
15 -4 19 -8 5 -9 3 -4 -7 5 -8 4 -11 0 -7 -14 13 -15 59 -2 51 7 -4 7 0 -1 10
-8 9 -11 21 -7 27 3 5 0 10 -7 10 -9 0 -9 3 2 10 12 8 12 10 1 10 -11 0 -11 3
0 17 12 14 12 16 -2 11 -9 -4 -16 -1 -16 8 0 7 5 10 11 7 8 -5 8 -3 0 8 -6 8
-9 26 -8 42 2 15 -2 27 -7 27 -6 0 -8 4 -5 9 4 5 2 19 -2 32 -5 14 -11 18 -16
11z m-2081 -552 c-3 -5 -12 -10 -18 -10 -7 0 -6 4 3 10 19 12 23 12 15 0z"/>
<path d="M6780 5455 c5 -7 -7 -10 -38 -10 -26 0 -51 -4 -55 -10 -6 -6 -10 -6
-13 2 -4 9 -12 7 -26 -7 -12 -11 -26 -16 -32 -12 -18 11 -37 11 -30 0 5 -7 -2
-9 -19 -6 -20 4 -24 2 -20 -11 5 -13 3 -13 -7 -4 -10 9 -18 8 -36 -4 -13 -8
-27 -12 -33 -9 -5 3 -12 -1 -15 -10 -5 -14 -9 -14 -23 -3 -10 8 -14 9 -10 2 4
-6 3 -14 -3 -18 -5 -3 -10 0 -10 7 0 9 -3 9 -10 -2 -5 -8 -10 -10 -10 -5 0 6
-5 2 -11 -7 -5 -10 -16 -15 -24 -12 -8 4 -15 1 -15 -6 0 -6 -4 -8 -10 -5 -5 3
-10 1 -10 -4 0 -6 -9 -11 -20 -11 -11 0 -20 -4 -20 -10 0 -5 -7 -6 -17 -3 -10
4 -14 2 -10 -4 4 -7 -5 -14 -23 -18 -16 -4 -30 -11 -30 -16 0 -5 -7 -9 -16 -9
-8 0 -12 -4 -9 -10 3 -5 -3 -10 -15 -10 -11 0 -23 -7 -26 -15 -4 -8 -10 -13
-14 -10 -4 3 -10 -2 -14 -10 -3 -8 -12 -12 -19 -9 -9 3 -17 -3 -20 -16 -3 -12
-10 -19 -15 -16 -6 3 -13 -1 -16 -10 -3 -9 -13 -14 -20 -11 -10 4 -13 0 -11
-14 2 -11 0 -17 -6 -13 -5 3 -31 -17 -58 -45 -26 -28 -52 -47 -56 -43 -5 4 -5
-1 -2 -10 4 -13 2 -15 -10 -11 -10 4 -14 2 -10 -4 9 -15 -21 -45 -35 -37 -6 4
-8 2 -5 -3 6 -9 -1 -20 -42 -69 -5 -7 -7 -15 -4 -18 4 -3 -2 -6 -12 -6 -10 0
-15 -3 -12 -7 4 -3 -1 -12 -11 -20 -11 -9 -11 -12 -2 -7 8 4 5 -3 -8 -15 -12
-12 -20 -27 -16 -32 3 -5 0 -8 -8 -7 -7 2 -12 -3 -11 -9 2 -7 -2 -13 -8 -13
-6 0 -9 -7 -5 -15 3 -9 -3 -19 -15 -25 -11 -6 -17 -15 -14 -21 4 -5 1 -9 -6
-9 -8 0 -8 -4 1 -16 11 -12 11 -15 -1 -12 -8 2 -13 -3 -12 -9 2 -7 -2 -13 -8
-13 -5 0 -7 -4 -4 -10 3 -5 1 -10 -4 -10 -6 0 -11 -14 -11 -31 0 -17 -4 -28
-10 -24 -5 3 -11 0 -11 -7 -1 -7 -2 -17 -4 -23 -1 -5 -3 -16 -3 -23 -1 -7 -7
-10 -14 -6 -7 4 -8 3 -4 -5 4 -6 2 -19 -6 -28 -7 -10 -8 -14 -1 -10 7 5 9 0 6
-13 -3 -11 -10 -20 -15 -20 -6 0 -8 -7 -5 -15 4 -8 2 -17 -4 -21 -6 -3 -8 -12
-5 -20 3 -8 2 -14 -3 -14 -4 0 -7 -16 -6 -35 1 -23 -2 -32 -9 -26 -8 7 -11
-12 -11 -59 0 -37 -4 -66 -9 -63 -4 3 -5 -4 -1 -16 5 -17 3 -20 -12 -14 -17 7
-17 6 0 -11 18 -18 24 -41 8 -32 -5 4 -7 -4 -3 -16 4 -16 2 -19 -9 -13 -11 7
-12 6 -3 -6 15 -20 18 -82 3 -73 -6 3 -4 -5 5 -18 9 -14 14 -27 11 -30 -10 -9
-8 -100 1 -107 5 -3 10 -21 10 -38 2 -71 4 -84 12 -80 4 3 8 -9 8 -26 3 -54 8
-77 17 -77 5 0 7 -6 4 -14 -3 -8 0 -20 8 -26 7 -6 12 -22 10 -35 -1 -14 2 -25
7 -25 6 0 7 -7 4 -16 -4 -10 -2 -13 6 -8 7 5 9 0 6 -14 -4 -13 -2 -20 6 -19 6
1 11 -8 10 -20 0 -13 5 -23 13 -23 7 0 13 -5 13 -11 0 -5 -6 -7 -12 -4 -7 4
-3 -2 10 -12 18 -15 20 -21 10 -32 -10 -11 -10 -12 0 -7 7 4 12 1 12 -8 0 -9
5 -16 11 -16 5 0 8 -4 4 -9 -3 -5 -1 -13 5 -16 6 -4 18 -24 26 -46 9 -21 20
-36 25 -33 8 5 14 -18 10 -39 -1 -5 3 -6 9 -2 9 5 14 -7 11 -27 0 -4 7 -4 16
-1 12 5 15 2 11 -8 -3 -8 4 -23 15 -34 11 -11 16 -14 12 -6 -5 9 -4 12 3 7 6
-3 9 -16 7 -28 -3 -11 -2 -18 2 -14 10 10 33 -15 26 -28 -4 -6 0 -6 9 2 13 11
16 10 14 -5 0 -10 5 -17 12 -15 6 1 11 -1 10 -6 -2 -4 12 -21 29 -38 18 -17
29 -35 25 -39 -4 -5 1 -5 11 -2 11 4 16 3 12 -3 -3 -6 2 -13 12 -17 10 -4 25
-15 34 -25 9 -10 23 -18 30 -18 11 0 11 -2 -1 -11 -12 -9 -11 -10 7 -6 15 3
20 1 16 -9 -3 -8 1 -14 11 -14 9 0 16 -5 16 -10 0 -6 3 -9 8 -9 19 3 33 -2 27
-11 -5 -9 16 -15 38 -11 5 1 6 -3 3 -8 -8 -12 17 -32 43 -34 11 0 19 -6 18
-12 -1 -5 6 -9 17 -7 10 2 15 -1 12 -6 -3 -6 1 -13 10 -16 10 -4 13 -2 9 7 -4
6 0 4 8 -5 8 -10 17 -15 20 -11 4 3 7 1 7 -5 0 -6 9 -9 20 -7 13 3 18 0 14 -7
-5 -7 -2 -9 9 -5 9 3 18 0 21 -9 3 -8 14 -14 24 -14 10 0 24 -6 31 -12 11 -11
13 -10 7 2 -4 8 0 6 8 -4 9 -12 16 -14 16 -7 0 9 5 7 16 -4 10 -10 24 -13 38
-9 21 6 21 6 1 -10 -19 -15 -19 -16 8 -6 21 7 27 6 27 -4 0 -10 7 -12 22 -8
15 4 19 2 13 -7 -5 -10 -2 -11 14 -6 17 5 20 3 14 -12 -6 -15 -4 -16 8 -6 11
9 18 8 33 -3 10 -7 23 -11 27 -8 5 3 9 0 9 -5 0 -6 3 -10 8 -10 22 4 42 -2 37
-11 -4 -6 -3 -10 2 -9 23 4 54 -2 49 -10 -3 -4 6 -7 19 -5 14 1 25 -2 25 -7 0
-6 5 -7 10 -4 6 3 10 0 10 -8 0 -10 8 -13 26 -9 21 4 25 2 19 -8 -6 -10 -4
-12 8 -7 10 4 17 1 17 -6 0 -8 4 -6 10 3 8 13 10 12 10 -2 0 -10 5 -18 11 -18
5 0 7 6 3 13 -4 6 1 5 12 -4 10 -9 25 -14 33 -11 8 3 11 0 7 -7 -5 -7 2 -11
19 -11 18 0 24 -4 19 -12 -4 -7 -4 -10 1 -6 4 4 15 2 23 -5 13 -9 14 -9 8 0
-5 9 -2 11 8 7 9 -3 16 -10 16 -15 0 -4 7 -6 15 -3 8 4 15 1 15 -6 0 -6 5 -8
10 -5 6 3 10 0 10 -7 0 -9 3 -9 10 2 8 13 10 13 10 -2 0 -11 5 -15 15 -12 8 4
15 1 15 -5 0 -6 7 -8 15 -5 8 4 15 1 15 -6 0 -6 4 -9 9 -6 14 9 42 -5 34 -17
-4 -6 0 -8 10 -4 9 3 19 2 22 -4 4 -5 11 -7 16 -4 5 4 9 0 9 -7 0 -9 3 -9 10
2 8 12 10 12 10 -5 0 -17 2 -17 10 -5 8 13 10 13 10 -2 0 -11 6 -16 20 -13 11
2 20 0 20 -4 0 -4 12 -13 26 -19 14 -7 23 -8 20 -3 -3 5 5 4 18 -2 13 -7 23
-15 20 -18 -2 -4 8 -6 22 -6 15 0 29 -4 33 -9 3 -5 13 -10 21 -12 8 -2 17 -8
18 -13 3 -6 10 -5 18 2 11 9 15 8 20 -5 3 -9 10 -13 15 -10 5 3 9 0 9 -6 0 -6
4 -9 8 -6 5 3 21 -2 36 -9 16 -8 32 -12 37 -9 5 3 12 -2 15 -10 3 -9 10 -13
15 -10 5 3 9 0 9 -5 0 -6 5 -11 11 -11 5 0 7 5 3 11 -4 8 0 8 15 0 18 -10 20
-9 14 5 -4 11 -2 15 4 11 6 -4 9 3 7 18 -1 14 1 25 6 25 4 0 11 7 14 16 4 10
2 13 -7 8 -6 -4 -4 2 6 13 10 12 19 37 20 56 1 19 6 35 12 34 5 -1 10 10 10
24 0 15 7 34 14 42 7 9 10 20 7 26 -3 5 1 12 10 15 8 3 12 11 9 16 -4 6 1 22
10 37 9 14 12 22 6 19 -7 -5 -9 -1 -5 8 3 9 14 16 23 17 13 0 13 2 -2 8 -17 6
-17 8 3 34 15 18 17 27 8 27 -10 0 -10 2 1 9 8 5 11 16 8 25 -4 9 -1 15 5 13
7 -1 12 3 13 8 0 6 4 16 8 23 5 6 6 16 2 21 -3 6 3 14 12 20 10 6 13 11 6 11
-7 0 -10 7 -7 15 4 8 10 13 14 10 5 -3 7 6 4 20 -2 14 0 25 6 25 6 0 8 5 5 10
-3 6 -1 10 5 10 6 0 10 6 9 13 -3 26 1 38 13 31 7 -5 8 -3 3 6 -4 7 -2 16 6
21 12 7 12 9 0 9 -11 0 -10 5 3 24 9 15 13 33 9 43 -6 15 -4 16 9 5 13 -10 15
-9 13 13 -2 14 1 25 6 25 4 0 6 7 3 15 -4 10 0 15 12 15 16 0 17 2 4 10 -13 9
-13 11 0 20 8 5 11 10 6 10 -4 0 -1 12 9 26 9 14 14 28 11 31 -3 3 2 12 12 19
12 9 14 16 6 21 -7 5 -8 16 -3 28 5 14 8 15 9 5 1 -10 4 -9 9 5 5 12 4 23 -3
27 -7 5 -4 8 7 8 12 0 17 6 15 18 -2 9 3 23 12 30 8 8 9 11 3 7 -7 -3 -13 -1
-13 4 0 6 4 11 9 11 5 0 12 7 15 16 3 9 2 12 -5 8 -14 -8 12 37 31 54 8 7 10
11 3 8 -6 -4 -14 -2 -18 4 -3 5 -2 10 4 10 6 0 15 10 22 21 9 17 8 20 -3 13
-11 -7 -11 -5 0 9 8 9 10 22 6 29 -6 10 -5 11 7 1 13 -10 15 -8 14 15 0 15 6
33 15 40 13 12 13 12 0 6 -13 -7 -13 -6 -1 9 8 10 11 20 8 24 -4 3 1 12 11 20
11 9 11 12 2 7 -12 -5 -12 -4 -3 6 6 7 9 19 6 26 -3 9 2 14 13 15 18 0 18 1 0
8 -19 7 -19 8 -1 15 16 6 17 9 5 16 -8 6 -10 10 -4 10 7 0 11 14 10 34 -1 19
2 32 6 30 9 -6 21 78 16 120 -3 27 -1 33 12 28 12 -5 13 -3 3 9 -10 12 -10 18
0 29 9 10 9 11 -1 6 -8 -5 -11 0 -8 16 3 13 5 23 6 23 1 0 3 22 4 48 2 36 -1
46 -11 42 -9 -3 -11 0 -7 7 11 18 11 90 0 113 -14 28 -16 46 -5 39 5 -3 9 2 9
11 0 10 -5 13 -12 9 -8 -5 -9 -2 -5 9 3 10 3 17 -1 17 -5 0 -7 16 -6 36 3 30
1 35 -14 30 -14 -5 -13 -3 2 9 20 15 20 15 0 15 -14 0 -16 2 -5 9 9 6 10 11 2
15 -6 4 -9 12 -6 17 4 5 1 9 -4 9 -6 0 -11 10 -11 23 0 13 -6 29 -12 36 -10
11 -10 13 0 7 17 -10 15 2 -3 21 -8 8 -13 19 -10 24 4 5 1 9 -5 9 -6 0 -9 4
-5 9 3 5 -2 16 -10 24 -11 12 -12 17 -2 20 7 3 5 6 -5 6 -11 1 -15 6 -12 16 4
8 1 15 -5 15 -6 0 -8 6 -5 14 3 8 -3 19 -15 25 -12 7 -18 17 -15 26 4 8 1 15
-5 15 -6 0 -8 7 -4 17 5 12 3 14 -7 8 -10 -6 -12 -3 -8 13 4 16 2 19 -10 15
-10 -4 -13 -2 -8 5 4 7 3 12 -3 12 -10 0 -27 38 -23 52 1 5 -4 7 -11 5 -6 -1
-11 4 -10 11 2 6 -4 12 -13 12 -8 0 -12 5 -9 11 8 12 -50 70 -61 61 -4 -4 -4
-2 0 5 8 15 -24 54 -37 46 -6 -3 -7 -1 -3 5 4 7 3 12 -3 12 -5 0 -13 10 -16
21 -6 17 -9 19 -16 8 -6 -10 -9 -8 -9 9 0 13 -6 22 -15 22 -9 0 -20 10 -25 23
-5 12 -9 18 -10 12 0 -5 -15 6 -33 26 -17 19 -27 28 -22 19 6 -9 -2 -3 -17 12
-15 15 -33 28 -39 28 -15 0 -39 26 -31 35 4 4 3 5 -3 4 -18 -6 -56 21 -48 34
4 7 -2 5 -12 -3 -11 -9 -16 -10 -11 -2 6 11 -5 17 -26 13 -5 0 -8 4 -8 9 0 6
-7 10 -16 10 -9 0 -14 6 -11 14 4 9 -2 12 -20 10 -13 -1 -27 4 -29 11 -3 7
-14 12 -25 10 -10 -2 -22 1 -25 7 -5 7 -2 8 6 3 8 -5 11 -4 6 3 -4 6 -14 8
-23 5 -11 -5 -14 -3 -8 6 6 10 3 11 -14 2 -18 -10 -20 -9 -14 5 4 12 3 15 -5
10 -7 -4 -19 -1 -27 7 -8 9 -23 14 -32 13 -10 -2 -21 1 -25 7 -3 6 -22 11 -41
11 -19 1 -33 4 -31 7 2 3 -7 11 -20 17 -17 7 -27 7 -35 -1 -8 -8 -11 -8 -11 1
0 7 -3 11 -7 11 -22 -4 -33 2 -27 14 5 8 2 8 -9 -2 -9 -7 -17 -9 -17 -4 0 5
-9 9 -20 9 -11 0 -20 -4 -20 -8 0 -5 -12 0 -27 9 -19 13 -25 14 -18 4 6 -11 4
-13 -11 -6 -10 4 -29 8 -41 8 -13 1 -23 4 -23 7 0 6 -50 6 -57 0 -4 -3 -51 -3
-60 0 -20 6 -40 5 -55 -3 -12 -5 -18 -4 -18 4 0 8 -4 8 -15 -1 -8 -7 -15 -9
-15 -5 0 4 -7 2 -15 -5 -13 -11 -14 -10 -10 1 4 10 -1 15 -14 15 -13 0 -17 -4
-11 -11z"/>
<path d="M3386 4853 c-4 -4 -23 -6 -43 -4 -22 2 -39 -2 -44 -11 -7 -10 -9 -10
-9 0 0 6 -6 12 -14 12 -8 0 -17 -6 -19 -12 -4 -10 -6 -10 -6 0 -1 6 -7 12 -15
12 -8 0 -17 -6 -19 -12 -4 -10 -6 -9 -6 1 -1 11 -4 11 -16 1 -8 -7 -22 -10
-30 -6 -8 3 -15 2 -15 -3 0 -4 -16 -7 -35 -6 -19 1 -32 -2 -29 -7 4 -6 -10 -8
-32 -6 -24 2 -39 -2 -42 -10 -3 -10 -7 -10 -18 -1 -11 9 -15 8 -20 -5 -3 -9
-10 -13 -15 -10 -5 3 -9 0 -9 -5 0 -6 -5 -11 -11 -11 -5 0 -7 6 -3 13 4 6 -1
4 -12 -5 -16 -14 -23 -15 -34 -5 -7 6 -10 8 -8 2 7 -12 -17 -37 -26 -28 -3 3
-13 0 -23 -8 -11 -9 -14 -10 -9 -2 5 9 2 11 -8 7 -9 -3 -13 -11 -9 -17 4 -6 1
-7 -7 -2 -7 4 -15 2 -19 -4 -4 -6 -18 -14 -32 -16 -13 -3 -29 -11 -35 -20 -8
-11 -13 -12 -23 -2 -10 9 -12 9 -9 -3 2 -10 -3 -14 -16 -12 -10 2 -15 -1 -12
-7 3 -5 -9 -15 -28 -21 -19 -6 -38 -20 -41 -30 -4 -12 -13 -17 -25 -15 -11 2
-19 1 -17 -3 1 -4 -2 -8 -7 -9 -5 0 -13 -8 -18 -17 -5 -9 -14 -13 -20 -10 -8
5 -9 1 -5 -10 4 -9 3 -15 -1 -12 -9 5 -50 -16 -51 -26 -1 -5 -3 -8 -6 -8 -3 0
-16 -11 -29 -25 -13 -13 -26 -22 -29 -19 -3 3 -8 -4 -12 -15 -3 -12 -12 -18
-20 -15 -8 3 -21 -6 -30 -20 -10 -14 -21 -23 -26 -21 -4 3 -13 -4 -19 -15 -6
-12 -18 -19 -25 -16 -9 3 -12 0 -8 -10 3 -8 -1 -14 -8 -14 -8 0 -23 -13 -34
-29 -11 -17 -21 -28 -24 -26 -2 3 2 12 10 21 13 16 12 16 -8 3 -12 -7 -20 -15
-18 -18 3 -2 -9 -14 -25 -26 -16 -12 -27 -24 -24 -27 2 -3 -2 -8 -11 -12 -11
-4 -14 -2 -9 7 4 6 -4 1 -18 -13 -13 -14 -22 -29 -20 -34 3 -5 0 -6 -5 -3 -6
4 -27 -9 -47 -29 -20 -20 -36 -34 -36 -30 0 3 -12 -6 -26 -19 -15 -14 -31 -22
-36 -19 -4 3 -7 0 -6 -8 2 -7 -5 -12 -14 -12 -11 1 -14 -4 -11 -14 4 -9 2 -13
-3 -9 -6 3 -17 -3 -24 -14 -8 -10 -20 -19 -27 -19 -6 0 -15 -5 -19 -12 -5 -7
-3 -8 6 -3 8 5 11 4 6 -3 -4 -6 -14 -8 -23 -5 -11 4 -14 3 -9 -5 4 -7 1 -12
-7 -12 -8 0 -17 -7 -21 -15 -3 -8 -12 -15 -20 -15 -9 0 -20 -9 -26 -20 -6 -11
-17 -20 -25 -20 -8 0 -15 -4 -15 -10 0 -5 -7 -10 -16 -10 -8 0 -12 -4 -9 -10
3 -5 1 -10 -5 -10 -6 0 -18 -7 -27 -15 -8 -8 -19 -12 -25 -9 -6 4 -8 3 -5 -3
3 -5 -3 -16 -15 -24 -11 -8 -30 -23 -41 -34 -11 -11 -16 -14 -12 -6 5 9 4 12
-3 7 -7 -4 -12 -14 -12 -23 0 -9 -6 -13 -15 -9 -9 3 -15 0 -15 -9 0 -8 -6 -14
-12 -13 -7 2 -12 -2 -11 -9 2 -8 -4 -10 -14 -6 -10 4 -14 2 -10 -4 4 -5 -5
-15 -19 -22 -14 -6 -22 -16 -19 -21 3 -5 0 -7 -7 -5 -18 7 -60 -41 -56 -63 2
-9 14 -22 26 -28 13 -6 24 -15 25 -20 1 -5 5 -8 9 -7 4 2 4 -5 1 -14 -4 -11
-3 -14 5 -9 11 7 17 -7 12 -29 -1 -5 1 -7 5 -4 7 8 65 -45 65 -61 0 -6 4 -8
10 -5 6 4 7 -1 3 -11 -5 -14 -3 -16 12 -10 11 4 16 4 12 0 -4 -4 1 -13 11 -21
11 -10 12 -12 2 -8 -8 4 -6 -1 5 -10 11 -9 19 -21 17 -26 -1 -6 1 -8 5 -6 5 2
17 -5 28 -16 11 -11 13 -16 5 -12 -8 4 -5 -2 7 -14 12 -11 27 -21 33 -21 6 0
9 -3 6 -8 -2 -4 2 -18 10 -32 7 -14 13 -21 14 -16 0 14 50 -35 50 -50 0 -6 7
-15 16 -18 8 -3 12 -11 9 -16 -4 -6 -3 -9 2 -8 4 2 9 -1 10 -5 5 -18 34 -38
44 -31 8 4 9 3 5 -4 -4 -6 2 -19 14 -29 11 -10 20 -21 20 -25 0 -4 13 -21 30
-36 16 -16 27 -32 23 -35 -3 -4 2 -7 13 -7 14 0 16 -2 6 -9 -10 -6 -9 -10 7
-14 12 -3 21 -12 21 -21 0 -9 7 -16 16 -16 8 0 12 -4 9 -10 -3 -5 -1 -10 5
-10 6 0 8 -4 5 -10 -3 -5 2 -10 11 -10 10 0 14 -3 11 -6 -4 -4 8 -20 26 -37
17 -16 23 -24 12 -17 -11 7 -5 -1 13 -17 17 -17 32 -34 32 -38 0 -11 41 -45
54 -45 6 0 5 -4 -3 -9 -11 -7 -9 -10 8 -16 11 -3 21 -13 21 -21 0 -8 5 -14 11
-14 5 0 7 -4 4 -10 -3 -5 1 -10 9 -10 8 0 18 -9 21 -20 4 -11 17 -31 30 -44
13 -13 21 -27 17 -32 -4 -4 -2 -4 4 -1 12 7 46 -28 37 -37 -4 -3 1 -6 10 -6
10 0 17 -8 17 -21 0 -11 4 -18 9 -15 4 3 17 -4 27 -16 11 -12 13 -18 5 -13
-10 5 -12 4 -7 -3 4 -7 13 -12 20 -12 8 0 24 -13 37 -30 13 -16 30 -30 37 -30
6 0 11 -6 10 -12 -2 -7 3 -12 11 -10 9 2 11 -3 7 -13 -3 -10 -2 -14 5 -10 5 4
18 -2 27 -12 9 -11 25 -22 35 -26 9 -3 17 -14 17 -24 0 -15 2 -16 10 -3 6 10
10 11 10 3 0 -7 7 -13 16 -13 9 0 12 -5 8 -12 -4 -6 -3 -8 4 -4 6 3 17 0 25
-8 8 -8 17 -12 21 -9 3 4 6 -1 6 -10 0 -10 6 -14 14 -11 7 3 20 -2 29 -10 9
-9 20 -16 26 -16 6 0 11 -5 11 -11 0 -5 4 -8 9 -4 5 3 15 -1 23 -8 7 -8 21
-13 30 -11 10 1 16 -3 15 -9 -1 -7 11 -12 30 -12 17 0 29 -3 27 -6 -2 -4 3
-12 11 -19 11 -9 15 -9 15 -1 0 7 5 9 10 6 6 -4 8 -10 6 -14 -3 -3 3 -7 12 -8
46 -3 62 -8 62 -18 0 -5 4 -4 9 3 7 11 9 11 14 -2 4 -9 13 -13 22 -10 8 4 21
2 28 -4 6 -5 22 -8 35 -7 12 1 22 -2 22 -6 0 -4 8 -6 18 -4 9 1 23 -2 30 -8 8
-6 12 -5 12 4 0 8 6 5 15 -7 11 -14 17 -16 23 -7 4 7 13 9 21 3 8 -4 21 -6 29
-2 11 4 13 1 7 -8 -5 -9 -4 -11 3 -6 19 11 54 16 66 9 16 -10 46 -11 52 -1 3
4 13 4 23 -2 12 -6 22 -5 29 2 8 8 12 8 12 2 0 -6 7 -11 15 -11 8 0 12 3 10 7
-2 4 21 6 51 5 30 -1 66 4 79 11 22 11 25 11 25 -4 0 -14 2 -14 9 -3 5 8 26
15 49 15 32 1 38 4 30 14 -9 10 -6 11 16 2 20 -7 25 -7 20 2 -5 8 -2 9 9 5 10
-4 17 -2 17 5 0 7 5 6 15 -2 12 -10 15 -10 15 3 0 10 7 15 20 12 11 -2 20 1
20 7 0 6 3 8 7 5 3 -4 13 -1 21 6 13 10 14 9 7 -3 -8 -13 -7 -13 11 0 10 8 22
20 26 25 5 6 8 5 8 -3 0 -7 5 -10 10 -7 6 4 8 10 6 14 -3 4 1 8 9 8 8 0 11 -5
8 -11 -4 -6 3 -3 15 8 12 10 28 16 36 13 11 -4 13 -1 9 10 -4 11 -2 14 5 9 7
-4 12 -3 12 2 0 6 8 9 18 8 9 0 16 4 15 10 -1 8 6 10 19 6 16 -4 19 -2 13 8
-6 10 -4 12 8 7 9 -3 18 0 21 9 3 9 10 12 16 9 5 -3 10 -1 10 5 0 6 5 8 10 5
6 -3 10 -2 10 2 0 5 9 14 21 21 15 10 19 10 14 1 -5 -8 -4 -10 3 -5 7 4 12 13
12 21 0 8 5 17 12 21 7 4 8 3 4 -4 -10 -16 2 -15 19 2 8 7 11 17 7 21 -4 4 -2
6 3 4 18 -4 45 13 38 24 -4 6 0 8 11 4 10 -4 15 -3 11 3 -3 6 0 10 8 10 15 0
63 51 59 63 -1 4 1 6 6 5 11 -4 82 64 82 79 0 7 5 12 12 11 7 -2 12 2 13 7 0
10 22 38 60 80 11 13 21 28 23 35 5 22 39 60 47 52 4 -4 4 4 0 17 -4 13 -3 21
1 18 14 -8 31 16 29 40 -1 12 2 20 6 17 4 -2 13 9 21 26 7 16 16 30 20 30 4 0
5 7 2 15 -4 8 -1 15 6 15 6 0 9 4 5 9 -3 5 -1 12 5 16 6 4 8 11 5 16 -4 5 0
12 8 15 9 3 13 13 10 25 -3 11 0 19 6 19 7 0 9 5 6 10 -3 6 -2 10 3 10 5 0 8
13 7 30 -1 24 1 28 12 18 11 -9 13 -8 11 3 -2 8 -7 17 -13 21 -6 5 -5 8 3 8 6
0 12 11 12 25 0 14 6 25 13 25 8 0 7 4 -3 10 -11 7 -12 10 -2 10 8 0 13 10 12
28 -3 41 -1 54 8 48 10 -6 9 35 -1 52 -6 8 -4 12 5 10 7 -2 11 3 9 12 -7 28 0
84 12 92 9 6 9 8 0 8 -7 0 -13 5 -13 11 0 5 6 7 13 3 7 -5 6 0 -3 11 -9 11
-10 16 -2 11 6 -4 12 -2 12 3 0 6 -4 11 -8 11 -4 0 -8 13 -7 29 0 16 3 27 7
24 5 -2 8 1 8 6 0 6 -5 11 -11 11 -8 0 -7 6 2 17 12 15 12 16 -1 8 -13 -8 -13
-7 -1 8 11 14 11 17 0 17 -12 0 -12 2 0 9 8 5 9 10 3 12 -6 2 -13 32 -16 67
-3 46 -1 60 7 55 7 -4 6 1 -2 10 -7 9 -10 17 -5 17 5 0 3 4 -5 9 -7 5 -14 27
-14 49 0 23 -4 39 -9 36 -4 -3 -9 7 -10 23 -2 41 -3 46 -16 69 -6 12 -8 24 -5
28 3 3 1 6 -7 6 -10 0 -10 4 1 17 10 11 10 14 2 9 -12 -6 -18 5 -14 27 0 4 -4
7 -11 7 -6 0 -8 3 -5 7 4 3 -1 15 -10 26 -10 11 -12 17 -5 13 11 -7 11 -4 0
13 -7 12 -17 21 -22 21 -4 0 -2 8 5 17 10 11 10 14 2 9 -8 -4 -13 -2 -13 4 0
6 -5 8 -12 4 -9 -5 -9 -2 1 9 9 11 10 17 2 17 -6 0 -11 6 -11 13 0 8 -9 22
-20 32 -12 10 -18 25 -15 32 2 8 0 11 -5 8 -9 -6 -14 8 -11 28 0 4 -7 7 -17 7
-13 0 -14 2 -3 9 11 7 9 10 -8 16 -11 3 -21 13 -21 21 0 8 -4 14 -10 14 -5 0
-10 7 -10 16 0 8 -4 12 -10 9 -5 -3 -10 1 -10 9 0 9 -5 16 -11 16 -6 0 -8 7
-5 16 6 15 4 15 -11 3 -9 -8 -14 -9 -10 -2 4 6 0 18 -8 26 -8 9 -15 21 -15 28
0 7 -3 10 -6 6 -8 -8 -33 16 -27 26 2 4 -3 7 -11 7 -9 0 -16 7 -16 17 0 9 -3
14 -6 10 -8 -8 -33 16 -27 26 2 4 -1 7 -7 7 -7 0 -24 13 -40 30 -15 16 -30 26
-34 23 -3 -3 -6 -1 -6 6 0 7 -5 9 -12 5 -8 -5 -9 -2 -5 10 4 11 3 15 -4 11 -5
-4 -18 2 -28 14 -10 11 -21 18 -25 14 -3 -3 -6 2 -6 13 0 13 -3 15 -8 7 -6 -9
-12 -7 -22 7 -8 11 -20 20 -26 20 -7 0 -15 6 -17 13 -4 9 -6 9 -6 -1 -1 -7
-14 1 -31 18 -16 17 -30 25 -30 18 0 -10 -2 -10 -9 1 -5 8 -14 10 -21 6 -9 -5
-11 -4 -6 3 4 7 -4 14 -20 18 -38 10 -75 30 -68 37 3 3 -2 4 -13 3 -10 -2 -21
2 -25 7 -8 13 -40 19 -32 6 3 -5 10 -6 16 -3 7 5 8 2 4 -5 -6 -9 -13 -8 -27 5
-10 9 -16 22 -12 28 4 6 -1 5 -10 -3 -11 -9 -17 -10 -17 -2 0 6 -5 11 -11 11
-5 0 -7 -6 -3 -12 4 -7 -5 -2 -21 12 -16 14 -25 20 -22 14 4 -7 0 -14 -8 -17
-8 -4 -12 -1 -9 6 3 8 -7 14 -28 15 -18 2 -36 8 -40 15 -6 9 -8 8 -8 -3 0 -11
-2 -12 -8 -3 -4 7 -16 12 -27 13 -11 0 -36 1 -55 1 -19 1 -38 6 -42 13 -5 7
-8 6 -8 -4 0 -13 -1 -13 -10 0 -9 13 -11 13 -20 0 -7 -10 -10 -11 -10 -2 0 8
-14 12 -43 11 -24 -1 -48 1 -54 4 -6 4 -13 3 -17 0z"/>
</g>
</svg>
